<?xml version="1.0" standalone="no"?>
<!DOCTYPE svg PUBLIC "-//W3C//DTD SVG 20010904//EN"
 "http://www.w3.org/TR/2001/REC-SVG-20010904/DTD/svg10.dtd">
<svg version="1.0" xmlns="http://www.w3.org/2000/svg"
 width="460.000000pt" height="460.000000pt" viewBox="0 0 460.000000 460.000000"
 preserveAspectRatio="xMidYMid meet">

<g transform="translate(0.000000,460.000000) scale(0.100000,-0.100000)"
fill="#000000" stroke="none">
<path d="M2160 4593 c-151 -15 -349 -56 -474 -98 -137 -46 -296 -116 -371
-164 -22 -14 -57 -34 -77 -46 -83 -45 -215 -149 -334 -261 -108 -102 -280
-318 -319 -402 -8 -17 -31 -57 -51 -88 -19 -30 -41 -72 -49 -92 -7 -20 -27
-66 -43 -102 -17 -36 -40 -99 -51 -141 -11 -41 -25 -88 -31 -104 -25 -65 -49
-211 -60 -358 -19 -251 8 -546 65 -706 8 -25 22 -70 30 -102 8 -31 33 -96 55
-144 22 -48 40 -93 40 -100 0 -7 8 -23 18 -36 10 -13 38 -60 62 -104 23 -44
46 -82 50 -85 4 -3 24 -30 45 -60 62 -90 142 -186 216 -260 73 -74 246 -220
259 -220 4 0 27 -16 51 -35 24 -19 49 -35 55 -35 6 0 22 -8 35 -18 25 -20 75
-46 198 -107 57 -29 333 -125 357 -125 2 0 4 -133 4 -296 l0 -296 24 6 c13 3
84 15 158 26 143 21 444 103 583 160 121 49 334 150 365 174 8 7 31 20 50 29
37 19 147 90 221 144 175 127 368 306 484 447 22 27 54 64 70 84 17 19 39 50
50 67 11 18 33 50 48 71 114 158 275 483 311 630 8 33 29 109 46 169 57 204
76 536 46 810 -14 122 -31 199 -89 390 -36 119 -127 323 -163 365 -7 8 -16 27
-19 43 -4 15 -11 30 -16 33 -5 3 -30 37 -55 77 -26 40 -62 89 -80 110 -19 20
-34 41 -34 46 0 13 -264 278 -298 299 -15 9 -51 35 -81 57 -202 149 -514 275
-791 321 -152 24 -404 38 -510 27z m437 -223 c183 -23 507 -137 633 -224 29
-20 56 -36 61 -36 17 0 182 -134 260 -212 229 -230 406 -536 484 -838 42 -162
45 -178 60 -285 51 -356 -30 -794 -218 -1175 -28 -58 -64 -123 -78 -145 -14
-22 -40 -63 -58 -91 -17 -28 -40 -62 -51 -74 -11 -13 -20 -27 -20 -31 0 -8
-35 -51 -122 -152 -102 -118 -277 -281 -388 -361 -90 -65 -238 -162 -289 -189
-31 -16 -68 -38 -83 -48 -14 -11 -32 -19 -38 -19 -7 0 -54 -20 -104 -45 -124
-60 -285 -117 -439 -154 -71 -17 -133 -31 -138 -31 -5 0 -10 110 -11 252 l-3
251 -60 14 c-135 30 -324 87 -390 118 -38 18 -81 36 -94 40 -14 4 -48 23 -78
42 -29 18 -61 36 -71 40 -19 7 -105 68 -192 135 -71 56 -235 219 -283 283 -77
102 -109 148 -126 179 -10 17 -35 59 -55 93 -20 34 -36 65 -36 68 0 4 -15 39
-33 79 -49 104 -88 231 -123 403 -20 100 -24 147 -24 309 0 125 5 221 15 277
24 138 84 345 126 434 22 46 39 86 39 91 0 11 88 161 132 225 61 89 174 221
255 298 80 77 263 219 281 219 5 0 20 8 33 18 59 46 263 140 369 172 157 46
269 70 375 79 121 11 361 6 482 -9z"/>
<path d="M2615 3559 c-30 -17 -95 -82 -95 -94 0 -6 -10 -26 -23 -45 -46 -70
-59 -120 -64 -245 -5 -127 3 -182 36 -224 l19 -25 44 18 c81 33 105 47 165 97
62 51 147 165 169 228 16 45 17 158 1 192 -7 14 -32 43 -56 65 -40 35 -49 39
-110 41 -37 2 -75 -1 -86 -8z"/>
<path d="M1915 3550 c-93 -21 -165 -103 -165 -188 0 -34 28 -121 45 -142 7 -8
15 -24 19 -35 8 -26 97 -115 167 -168 31 -23 88 -53 127 -67 71 -24 72 -24 86
-5 46 62 45 206 -3 353 -34 104 -49 130 -100 185 -56 60 -113 82 -176 67z"/>
<path d="M1414 3061 c-33 -8 -57 -28 -90 -76 -48 -67 -39 -142 25 -208 96
-102 299 -165 446 -138 72 13 175 52 175 66 0 5 -11 28 -25 50 -13 22 -29 51
-35 65 -25 56 -169 174 -271 222 -41 20 -178 31 -225 19z"/>
<path d="M1620 2441 c-103 -8 -159 -28 -234 -81 -49 -35 -96 -112 -96 -156 1
-70 61 -152 129 -175 80 -27 238 15 331 89 58 46 160 144 160 154 0 5 12 27
26 50 15 23 30 54 35 70 7 25 5 30 -18 39 -36 13 -218 19 -333 10z"/>
<path d="M2855 2443 c-36 -5 -127 -33 -137 -42 -4 -4 8 -33 27 -64 19 -32 35
-61 35 -65 0 -14 125 -129 179 -166 29 -20 61 -36 72 -36 10 0 20 -4 23 -9 9
-14 124 -34 171 -29 128 15 204 152 143 260 -31 54 -144 128 -223 145 -56 12
-221 15 -290 6z"/>
<path d="M2151 2180 c-114 -58 -220 -168 -278 -289 -42 -87 -45 -97 -41 -160
3 -60 7 -72 41 -113 45 -54 84 -73 153 -73 84 1 134 46 202 180 33 63 55 206
49 310 -5 83 -30 186 -45 184 -4 0 -41 -17 -81 -39z"/>
<path d="M2511 2167 c-25 -31 -52 -129 -58 -207 -9 -142 39 -282 127 -364 48
-45 50 -46 115 -46 122 0 205 69 205 171 0 146 -95 295 -260 406 -56 38 -115
56 -129 40z"/>
</g>
</svg>
