<?xml version="1.0" standalone="no"?>
<!DOCTYPE svg PUBLIC "-//W3C//DTD SVG 20010904//EN"
 "http://www.w3.org/TR/2001/REC-SVG-20010904/DTD/svg10.dtd">
<svg version="1.0" xmlns="http://www.w3.org/2000/svg"
 width="128.000000pt" height="128.000000pt" viewBox="0 0 128.000000 128.000000"
 preserveAspectRatio="xMidYMid meet">

<g transform="translate(0.000000,128.000000) scale(0.100000,-0.100000)"
fill="#000000" stroke="none">
<path d="M429 1131 l-24 -19 -3 -351 -3 -351 -34 0 c-58 0 -75 -27 -75 -114 0
-41 4 -86 10 -100 l10 -26 330 0 330 0 10 26 c6 14 10 59 10 100 0 117 6 114
-255 114 l-215 0 0 315 0 315 105 0 105 0 0 -44 c0 -36 -4 -46 -20 -51 -27 -9
-53 -61 -46 -91 4 -14 15 -33 25 -43 19 -19 18 -20 -15 -52 -19 -18 -34 -39
-34 -46 0 -22 32 -15 62 14 l28 27 0 -54 c0 -49 -3 -56 -45 -101 -25 -26 -45
-53 -45 -58 0 -27 26 -19 66 20 l44 43 45 -44 c35 -34 48 -41 57 -32 9 9 2 23
-35 60 -45 46 -47 50 -47 107 l0 59 29 -28 c20 -19 36 -26 47 -22 15 6 12 12
-21 46 l-39 40 22 23 c33 35 30 89 -8 120 -24 21 -30 33 -30 66 l0 41 45 0
c40 0 47 3 56 26 10 28 3 64 -15 76 -6 4 -99 8 -207 8 -179 0 -199 -2 -220
-19z m301 -36 c0 -12 -19 -15 -113 -15 -75 0 -117 -4 -125 -12 -9 -9 -12 -97
-12 -335 0 -280 -2 -323 -15 -323 -13 0 -15 45 -15 343 0 189 3 347 7 350 3 4
66 7 140 7 112 0 133 -2 133 -15z m100 0 c0 -10 -10 -15 -30 -15 -20 0 -30 5
-30 15 0 10 10 15 30 15 20 0 30 -5 30 -15z m-45 -199 c31 -46 -25 -97 -66
-60 -23 21 -24 47 -3 68 23 23 51 20 69 -8z m113 -608 l3 -78 -281 0 -280 0 0
80 0 80 278 -2 277 -3 3 -77z"/>
</g>
</svg>
